1.9Hzlow3min_grf.mot
version=1
nRows=30
nColumns 19
inDegrees=yes
endheader
time	1_ground_force_vx	1_ground_force_vy	1_ground_force_vz	1_ground_force_px	1_ground_force_py	1_ground_force_pz	1_ground_torque_x	1_ground_torque_y	1_ground_torque_z	2_ground_force_vx	2_ground_force_vy	2_ground_force_vz	2_ground_force_px	2_ground_force_py	2_ground_force_pz	2_ground_torque_x	2_ground_torque_y	2_ground_torque_z
            1.253500	          -73.512531	          934.708812	          -48.453849	           -0.243050	            0.006391	           -0.444832	           -0.005061	            0.064354	           -0.003336	          -15.387977	         1011.304386	           54.061938	           -0.298377	            0.005233	           -0.649049	           -0.009291	            0.610619	            0.032642
            1.254000	          -73.008707	          930.925266	          -48.929892	           -0.242864	            0.006391	           -0.444989	           -0.031534	            0.402083	           -0.021134	          -16.027821	         1006.881560	           54.281088	           -0.298205	            0.005233	           -0.649024	           -0.011393	            0.715725	            0.038585
            1.254500	          -72.688979	          926.782590	          -49.728020	           -0.242880	            0.006392	           -0.445091	           -0.018973	            0.241910	           -0.012980	          -17.134212	         1001.905017	           54.404610	           -0.298185	            0.005233	           -0.648955	           -0.015341	            0.897048	            0.048711
            1.255000	          -72.825132	          922.995774	          -49.468776	           -0.242898	            0.006392	           -0.445039	            0.023657	           -0.299838	            0.016070	          -18.008327	          997.481634	           54.576932	           -0.298051	            0.005234	           -0.649119	           -0.019019	            1.053489	            0.057641
            1.255500	          -73.052813	          919.569140	          -49.116046	           -0.242788	            0.006391	           -0.444915	            0.060348	           -0.759646	            0.040574	          -18.081362	          991.772127	           54.697387	           -0.297962	            0.005234	           -0.648912	           -0.021558	            1.182484	            0.065215
            1.256000	          -73.738343	          916.682004	          -48.484724	           -0.242635	            0.006390	           -0.444747	            0.077691	           -0.965818	            0.051084	          -17.786950	          988.090039	           54.731054	           -0.297823	            0.005235	           -0.649059	           -0.020556	            1.141923	            0.063252
            1.256500	          -73.875164	          913.437059	          -48.452436	           -0.242719	            0.006390	           -0.444578	            0.056466	           -0.698178	            0.037034	          -17.252471	          982.752808	           54.383284	           -0.297871	            0.005234	           -0.648953	           -0.019402	            1.105201	            0.061159
            1.257000	          -73.691333	          907.849751	          -48.706137	           -0.242580	            0.006392	           -0.445044	            0.027780	           -0.342234	            0.018361	          -17.233197	          977.412423	           54.364229	           -0.297780	            0.005234	           -0.648865	           -0.017589	            0.997594	            0.055487
            1.257500	          -73.004406	          904.246929	          -49.273574	           -0.242339	            0.006391	           -0.444916	            0.007259	           -0.089914	            0.004900	          -17.639621	          973.175983	           54.208511	           -0.297647	            0.005236	           -0.649048	           -0.020593	            1.136137	            0.063286
            1.258000	          -72.545950	          901.003280	          -49.517900	           -0.242452	            0.006391	           -0.444875	            0.032090	           -0.398549	            0.021904	          -18.462817	          967.647256	           54.564583	           -0.297718	            0.005235	           -0.649046	           -0.024471	            1.282530	            0.072320
            1.258500	          -72.041053	          897.578360	          -49.533838	           -0.242382	            0.006390	           -0.444709	            0.061495	           -0.766180	            0.042282	          -18.956171	          961.567945	           54.683904	           -0.297611	            0.005235	           -0.648782	           -0.028097	            1.425242	            0.081053
            1.259000	          -72.635427	          893.250492	          -49.229922	           -0.242402	            0.006390	           -0.444558	            0.102330	           -1.258426	            0.069356	          -19.222608	          957.515378	           54.763424	           -0.297541	            0.005236	           -0.649003	           -0.031052	            1.546782	            0.088466
            1.259500	          -72.953887	          889.281575	          -48.558289	           -0.242416	            0.006390	           -0.444585	            0.106548	           -1.298784	            0.070919	          -19.254357	          953.281296	           54.325979	           -0.297480	            0.005236	           -0.649130	           -0.033331	            1.650210	            0.094043
            1.260000	          -72.998542	          884.594130	          -48.440708	           -0.242300	            0.006390	           -0.444715	            0.085630	           -1.037660	            0.056823	          -18.297961	          947.943290	           54.588094	           -0.297344	            0.005237	           -0.649098	           -0.029219	            1.513713	            0.087168
            1.260500	          -72.814292	          880.447767	          -48.413082	           -0.242177	            0.006390	           -0.444706	            0.052100	           -0.629976	            0.034640	          -17.997896	          942.606552	           53.864998	           -0.297411	            0.005237	           -0.649147	           -0.028528	            1.494112	            0.085381
            1.261000	          -72.401736	          876.843713	          -48.704700	           -0.242151	            0.006389	           -0.444534	            0.053607	           -0.649221	            0.036061	          -17.744455	          937.267804	           53.658132	           -0.297216	            0.005237	           -0.649057	           -0.027195	            1.436435	            0.082235
            1.261500	          -71.531199	          871.979098	          -49.278003	           -0.242042	            0.006390	           -0.444632	            0.069947	           -0.852672	            0.048187	          -18.285989	          931.556606	           53.778786	           -0.297160	            0.005237	           -0.648878	           -0.031646	            1.612142	            0.093069
            1.262000	          -70.981508	          868.736252	          -49.705988	           -0.242011	            0.006389	           -0.444394	            0.101927	           -1.247477	            0.071376	          -18.918585	          925.108795	           53.849924	           -0.297276	            0.005235	           -0.648610	           -0.036253	            1.772744	            0.103190
            1.262500	          -70.887563	          864.407338	          -49.128636	           -0.241942	            0.006389	           -0.444367	            0.131002	           -1.597450	            0.090791	          -19.555711	          919.948904	           54.207230	           -0.297143	            0.005236	           -0.648682	           -0.042274	            1.988678	            0.117181
            1.263000	          -70.976510	          858.816044	          -48.464536	           -0.241994	            0.006390	           -0.444590	            0.123553	           -1.494997	            0.084365	          -19.536581	          914.609813	           53.859679	           -0.297031	            0.005237	           -0.648774	           -0.043831	            2.051954	            0.120836
            1.263500	          -71.478805	          854.848000	          -47.975871	           -0.241842	            0.006390	           -0.444524	            0.103470	           -1.237449	            0.069448	          -18.814098	          909.089559	           53.370387	           -0.297110	            0.005236	           -0.648640	           -0.041347	            1.997856	            0.117289
            1.264000	          -71.156716	          850.160503	          -47.859201	           -0.241831	            0.006390	           -0.444572	            0.081114	           -0.969130	            0.054557	          -18.330498	          904.857338	           52.932723	           -0.296903	            0.005238	           -0.649036	           -0.037062	            1.829507	            0.107023
            1.264500	          -70.744486	          846.557039	          -48.288383	           -0.241721	            0.006388	           -0.444280	            0.091455	           -1.094389	            0.062425	          -18.077659	          899.702167	           52.867297	           -0.296834	            0.005238	           -0.648959	           -0.036425	            1.812821	            0.106523
            1.265000	          -69.781397	          841.871165	          -48.494293	           -0.241720	            0.006389	           -0.444443	            0.117045	           -1.412078	            0.081340	          -18.244435	          893.992779	           52.893937	           -0.296746	            0.005238	           -0.648896	           -0.038520	            1.887515	            0.111677
            1.265500	          -69.138890	          836.824243	          -48.609241	           -0.241675	            0.006389	           -0.444456	            0.146549	           -1.773761	            0.103034	          -18.690481	          887.731109	           52.543299	           -0.296686	            0.005238	           -0.648721	           -0.045112	            2.142645	            0.126820
            1.266000	          -68.909713	          832.679584	          -48.948583	           -0.241651	            0.006389	           -0.444338	            0.161543	           -1.952024	            0.114749	          -19.324387	          881.651412	           52.662679	           -0.296651	            0.005238	           -0.648603	           -0.050951	            2.324588	            0.138852
            1.266500	          -68.723444	          827.989112	          -48.143729	           -0.241537	            0.006389	           -0.444363	            0.148048	           -1.783707	            0.103714	          -19.307148	          876.863845	           52.551739	           -0.296642	            0.005238	           -0.648751	           -0.052730	            2.394814	            0.143525
            1.267000	          -68.629125	          822.938742	          -47.477757	           -0.241377	            0.006389	           -0.444445	            0.125013	           -1.499038	            0.086484	          -18.867696	          871.894557	           52.205323	           -0.296465	            0.005239	           -0.648922	           -0.050316	            2.325163	            0.139221
            1.267500	          -68.948739	          818.971913	          -47.264689	           -0.241385	            0.006389	           -0.444410	            0.125783	           -1.494050	            0.086225	          -18.472938	          866.371278	           52.232380	           -0.296450	            0.005239	           -0.648932	           -0.045632	            2.140105	            0.129024
            1.268000	          -68.260329	          813.564408	          -47.381297	           -0.241338	            0.006389	           -0.444467	            0.131183	           -1.563513	            0.091058	          -17.747778	          860.114294	           51.787388	           -0.296407	            0.005239	           -0.648763	           -0.042136	            2.042039	            0.122951
